<?xml version="1.0" standalone="no"?>
<!DOCTYPE svg PUBLIC "-//W3C//DTD SVG 20010904//EN"
 "http://www.w3.org/TR/2001/REC-SVG-20010904/DTD/svg10.dtd">
<svg version="1.0" xmlns="http://www.w3.org/2000/svg"
 width="260.000000pt" height="260.000000pt" viewBox="0 0 260.000000 260.000000"
 preserveAspectRatio="xMidYMid meet">
<metadata>
Created by potrace 1.11, written by Peter Selinger 2001-2013
</metadata>
<g transform="translate(0.000000,260.000000) scale(0.100000,-0.100000)"
fill="#000000" stroke="none">
<path d="M1245 2567 c-99 -79 -585 -447 -589 -447 -3 0 -7 44 -8 98 l-3 97
-135 0 -135 0 -2 -209 c-1 -189 -3 -209 -20 -221 -10 -7 -52 -40 -93 -72 l-75
-60 0 -876 0 -877 1109 2 1109 3 0 874 c0 862 0 874 -20 890 -11 9 -33 26 -49
38 -83 63 -765 584 -933 713 -58 44 -107 80 -110 79 -3 0 -24 -15 -46 -32z
m190 -828 c222 -57 348 -270 299 -506 -42 -200 -208 -387 -552 -618 l-60 -40
324 1 324 2 0 -93 0 -93 -467 2 -468 1 0 73 c0 40 2 77 5 81 3 5 60 49 127 97
360 263 519 437 548 601 36 194 -65 324 -249 323 -148 -2 -247 -90 -276 -246
-7 -35 -14 -64 -16 -64 -2 0 -44 19 -93 41 -101 47 -99 40 -64 154 45 146 194
274 339 292 27 3 51 7 53 9 9 8 179 -5 226 -17z"/>
</g>
</svg>
